<svg xmlns="http://www.w3.org/2000/svg" width="29" height="29" viewBox="0 0 29 29">
  <g id="ig" transform="translate(-547 -727)">
    <g id="Group_4" data-name="Group 4" transform="translate(556 736)">
      <g id="ig-2" data-name="ig">
        <g id="Group_410" data-name="Group 410">
          <g id="Group_1" data-name="Group 1">
            <g id="Group_421" data-name="Group 421">
              <path id="Path_420-2" data-name="Path 420-2" d="M1370.448,145.951c1.6,0,1.79.007,2.423.035a3.328,3.328,0,0,1,1.113.207,1.982,1.982,0,0,1,1.137,1.137,3.308,3.308,0,0,1,.207,1.113c.029.633.035.822.035,2.423s-.007,1.79-.035,2.423a3.308,3.308,0,0,1-.208,1.114,1.979,1.979,0,0,1-1.138,1.137,3.3,3.3,0,0,1-1.113.206c-.633.029-.822.035-2.423.035s-1.79-.007-2.422-.035a3.338,3.338,0,0,1-1.114-.206,1.989,1.989,0,0,1-1.137-1.137,3.322,3.322,0,0,1-.206-1.113c-.029-.632-.035-.821-.035-2.423s.007-1.79.035-2.423a3.322,3.322,0,0,1,.206-1.113,1.987,1.987,0,0,1,1.137-1.137,3.339,3.339,0,0,1,1.114-.207c.631-.029.822-.035,2.422-.035m0-1.08c-1.628,0-1.829.008-2.472.037a4.4,4.4,0,0,0-1.455.278,3.068,3.068,0,0,0-1.753,1.754,4.371,4.371,0,0,0-.278,1.455c-.029.639-.037.844-.037,2.472s.007,1.83.037,2.472a4.371,4.371,0,0,0,.278,1.455,3.068,3.068,0,0,0,1.753,1.754,4.425,4.425,0,0,0,1.455.278c.64.029.844.036,2.472.036s1.83-.007,2.472-.036a4.413,4.413,0,0,0,1.455-.278,3.066,3.066,0,0,0,1.754-1.754,4.411,4.411,0,0,0,.278-1.455c.029-.639.036-.844.036-2.472s-.007-1.83-.036-2.472a4.411,4.411,0,0,0-.278-1.455,3.066,3.066,0,0,0-1.754-1.754,4.386,4.386,0,0,0-1.455-.278c-.64-.029-.844-.037-2.472-.037" transform="translate(-1364.452 -144.871)" fill="#4e1800"/>
            </g>
            <g id="Group_422" data-name="Group 422" transform="translate(3.175 3.178)">
              <path id="Path_421-2" data-name="Path 421-2" d="M1370.293,147.9a2.817,2.817,0,1,0,2.817,2.817h0a2.817,2.817,0,0,0-2.817-2.817m0,4.642a1.827,1.827,0,1,1,1.827-1.827h0a1.827,1.827,0,0,1-1.827,1.827" transform="translate(-1367.476 -147.897)" fill="#4e1800"/>
            </g>
            <g id="Group_423" data-name="Group 423" transform="translate(8.575 2.097)">
              <path id="Path_422-2" data-name="Path 422-2" d="M1374.569,147.681a.658.658,0,1,1-.657-.658h0a.657.657,0,0,1,.657.658" transform="translate(-1373.254 -147.023)" fill="#4e1800"/>
            </g>
          </g>
        </g>
      </g>
    </g>
    <g id="Ellipse_4" data-name="Ellipse 4" transform="translate(547 727)" fill="none" stroke="#4e1800" stroke-width="1">
      <circle cx="14.5" cy="14.5" r="14.5" stroke="none"/>
      <circle cx="14.5" cy="14.5" r="14" fill="none"/>
    </g>
  </g>
</svg>
